<?xml version="1.0" standalone="no"?>
<!DOCTYPE svg PUBLIC "-//W3C//DTD SVG 20010904//EN"
 "http://www.w3.org/TR/2001/REC-SVG-20010904/DTD/svg10.dtd">
<svg version="1.0" xmlns="http://www.w3.org/2000/svg"
 width="700.000000pt" height="700.000000pt" viewBox="0 0 700.000000 700.000000"
 preserveAspectRatio="xMidYMid meet">
<metadata>
Created by potrace 1.14, written by Peter Selinger 2001-2017
</metadata>
<g transform="translate(0.000000,700.000000) scale(0.100000,-0.100000)"
fill="#000000" stroke="none">
<path d="M3435 6962 c-94 -10 -220 -59 -297 -115 -52 -37 -119 -109 -160 -171
-78 -120 -107 -279 -84 -453 5 -41 4 -63 -2 -63 -9 0 -344 -192 -1154 -661
l-257 -149 -37 34 c-51 46 -132 94 -212 124 -117 44 -325 38 -427 -11 -16 -8
-46 -22 -65 -31 -102 -47 -228 -187 -276 -306 -27 -68 -54 -205 -48 -249 1
-14 5 -48 8 -75 23 -211 197 -423 408 -495 l53 -18 0 -823 0 -823 -40 -13
c-149 -50 -291 -170 -358 -304 -173 -343 -8 -747 356 -871 92 -32 250 -35 347
-8 91 25 168 65 240 124 32 26 58 41 64 36 6 -4 36 -22 66 -38 30 -17 197
-112 370 -213 173 -100 331 -191 350 -202 19 -11 51 -29 70 -40 96 -56 350
-203 385 -223 22 -13 69 -40 105 -61 l65 -39 -11 -55 c-36 -180 27 -400 153
-535 91 -98 230 -174 350 -191 342 -50 645 163 711 501 10 48 6 210 -6 243 -8
23 -7 33 1 40 7 6 140 84 297 175 157 90 330 190 385 222 115 67 270 156 335
193 25 14 74 42 109 64 34 21 64 38 66 38 1 0 52 29 113 64 l110 64 48 -40
c256 -211 616 -194 843 41 160 166 215 411 141 626 -60 176 -209 325 -382 384
l-53 18 0 823 0 823 53 18 c167 57 322 208 376 369 27 80 38 144 38 216 -1
237 -133 447 -346 549 -50 24 -113 48 -139 53 -70 14 -203 13 -272 -3 -80 -19
-193 -76 -255 -129 l-52 -44 -86 50 c-48 28 -105 61 -127 73 -22 13 -123 71
-225 130 -102 59 -207 120 -235 136 -27 15 -193 110 -367 211 -174 101 -331
191 -349 201 -31 17 -31 18 -23 75 31 228 -25 409 -172 556 -130 130 -322 198
-499 178z m-371 -1065 c-1 -8 -60 -116 -131 -239 -71 -123 -210 -362 -308
-533 -98 -170 -185 -321 -194 -335 -9 -14 -21 -34 -27 -45 -6 -11 -64 -112
-129 -225 -65 -113 -169 -294 -231 -402 -63 -108 -122 -210 -131 -227 -10 -17
-68 -117 -129 -223 -143 -248 -261 -452 -409 -708 -65 -113 -123 -214 -129
-225 -26 -48 -46 -69 -56 -59 -7 7 -9 284 -8 828 l3 817 73 30 c202 81 344
254 383 466 11 56 7 186 -6 249 l-7 31 344 198 c188 109 440 255 558 323 118
69 231 133 250 144 19 11 87 50 150 88 63 37 120 67 125 65 6 -1 9 -9 9 -18z
m1067 -83 c101 -59 211 -122 244 -141 33 -18 67 -38 75 -43 8 -6 71 -42 140
-82 69 -39 152 -87 185 -106 33 -19 78 -45 100 -57 22 -13 141 -82 265 -154
215 -124 225 -131 222 -158 -9 -88 -10 -235 0 -278 11 -56 74 -198 104 -235
83 -106 189 -182 312 -224 l37 -13 0 -823 c0 -598 -3 -824 -11 -827 -9 -3
-296 482 -534 902 -34 60 -222 385 -240 415 -5 8 -50 87 -101 175 -50 88 -113
197 -140 241 -27 45 -49 84 -49 87 0 3 -17 34 -38 68 -22 35 -50 84 -64 109
-14 25 -49 86 -78 135 -29 50 -64 110 -78 135 -13 25 -28 50 -32 55 -5 6 -19
30 -32 55 -14 25 -51 90 -83 145 -103 178 -381 659 -394 683 -10 19 -8 42 3
42 2 0 86 -48 187 -106z m-618 -80 c51 2 108 7 127 11 l35 7 134 -234 c74
-128 191 -330 259 -448 69 -118 134 -231 144 -250 11 -19 35 -60 53 -90 18
-30 44 -75 57 -100 14 -25 106 -184 205 -355 99 -170 191 -330 205 -355 14
-25 175 -304 358 -620 183 -316 343 -595 357 -620 14 -25 28 -49 32 -55 4 -5
19 -30 33 -55 l26 -46 -34 -39 c-47 -53 -100 -145 -120 -206 -12 -35 -22 -50
-38 -53 -11 -3 -852 -4 -1868 -4 l-1846 1 -6 28 c-9 49 -67 155 -116 216 l-48
60 18 29 c9 16 135 234 280 484 144 250 279 484 300 520 153 261 360 624 360
631 0 5 5 9 10 9 6 0 10 5 10 11 0 6 22 48 48 93 43 70 283 487 340 586 10 19
58 102 106 183 47 82 86 153 86 158 0 5 5 9 10 9 6 0 10 4 10 10 0 5 36 70 80
146 44 75 80 138 80 140 0 3 11 21 24 42 13 20 42 69 65 109 l41 71 45 -14
c30 -8 79 -12 138 -10z m1855 -3820 c-2 -9 -120 -83 -263 -166 -292 -169 -261
-151 -490 -283 -93 -54 -228 -132 -300 -173 -198 -114 -265 -153 -319 -182
l-49 -27 -58 46 c-121 97 -253 142 -402 137 -101 -4 -130 -9 -197 -33 -69 -26
-130 -61 -186 -109 l-52 -44 -241 140 c-133 77 -260 150 -284 164 -39 22 -177
102 -684 395 -118 68 -213 129 -213 137 0 12 273 14 1871 14 1700 0 1870 -1
1867 -16z"/>
</g>
</svg>
